<svg xmlns="http://www.w3.org/2000/svg" version="1.0" width="200.000000pt" height="200.000000pt" viewBox="0 0 200.000000 200.000000" preserveAspectRatio="xMidYMid meet">
<metadata fill="#ffffff">
Created by potrace 1.16, written by Peter Selinger 2001-2019
</metadata>
<g transform="translate(0.000000,200.000000) scale(0.100000,-0.100000)" fill="#ffffff" stroke="none">
<path d="M770 1623 c-62 -55 -48 -163 25 -197 41 -20 66 -20 110 -2 41 17 65 60 65 117 0 33 -6 47 -34 75 -30 30 -40 34 -85 34 -41 0 -56 -5 -81 -27z" fill="#ffffff"/>
<path d="M1064 1616 c-28 -28 -34 -42 -34 -75 0 -57 24 -100 65 -117 44 -18 69 -18 110 2 73 34 87 142 25 197 -25 22 -40 27 -81 27 -45 0 -55 -4 -85 -34z" fill="#ffffff"/>
<path d="M604 1391 c-37 -23 -56 -65 -52 -117 3 -36 0 -40 -37 -59 -64 -32 -79 -70 -84 -208 -2 -65 0 -133 3 -152 8 -39 40 -75 68 -75 15 0 18 -12 20 -96 2 -79 6 -99 20 -108 13 -8 23 -8 35 0 16 10 18 34 18 254 0 220 -2 244 -18 254 -12 8 -22 8 -35 0 -14 -9 -18 -31 -23 -120 l-5 -109 -2 128 c-2 124 -1 129 23 152 21 22 33 25 102 25 84 0 124 17 149 62 18 31 17 93 -1 128 -30 58 -120 78 -181 41z" fill="#ffffff"/>
<path d="M1258 1394 c-35 -19 -58 -63 -58 -111 1 -86 50 -123 163 -123 69 0 81 -3 102 -25 24 -23 25 -28 23 -152 l-2 -128 -5 109 c-5 89 -9 111 -23 120 -13 8 -23 8 -35 0 -16 -10 -18 -34 -18 -254 0 -220 2 -244 17 -254 13 -8 23 -8 35 0 15 9 19 29 21 108 2 84 5 96 20 96 28 0 60 36 68 75 3 19 5 87 3 152 -5 139 -20 176 -85 208 -39 19 -41 21 -36 62 5 49 -23 103 -63 121 -35 16 -94 14 -127 -4z" fill="#ffffff"/>
<path d="M923 1370 c-46 -28 -66 -72 -61 -135 l4 -51 -50 -24 c-35 -18 -57 -37 -73 -65 -21 -37 -23 -52 -23 -217 l0 -176 31 -26 c17 -14 39 -26 49 -26 18 0 20 -10 22 -147 l3 -148 29 -3 c16 -2 32 2 37 10 5 7 9 149 9 315 0 261 -2 304 -16 317 -18 19 -20 19 -45 6 -17 -10 -19 -22 -19 -141 0 -100 -3 -130 -12 -127 -10 3 -14 43 -16 144 -4 219 15 239 228 232 180 -5 193 -23 188 -243 -2 -108 -6 -130 -18 -130 -12 0 -16 23 -20 129 -4 106 -8 131 -22 139 -12 8 -21 7 -32 -2 -14 -12 -16 -50 -14 -330 l3 -316 30 0 30 0 3 148 3 147 25 0 c15 0 38 12 55 29 l29 29 0 174 c0 161 -2 176 -23 213 -16 28 -38 47 -73 65 l-50 24 4 51 c8 93 -48 155 -138 155 -27 0 -58 -8 -77 -20z" fill="#ffffff"/>
</g>
</svg>