<svg xmlns="http://www.w3.org/2000/svg" version="1.0" width="200.000000pt" height="200.000000pt" viewBox="0 0 200.000000 200.000000" preserveAspectRatio="xMidYMid meet">
<metadata fill="#ffffff">
Created by potrace 1.16, written by Peter Selinger 2001-2019
</metadata>
<g transform="translate(0.000000,200.000000) scale(0.100000,-0.100000)" fill="#ffffff" stroke="none">
<path d="M884 1546 l-34 -34 0 -325 c0 -292 2 -325 16 -331 9 -4 25 -4 35 -1 18 6 19 23 19 306 0 188 4 308 10 320 10 18 26 19 491 19 l479 0 10 -26 c13 -34 13 -914 0 -948 l-10 -26 -379 0 c-332 0 -382 -2 -395 -16 -19 -19 -20 -25 -3 -47 11 -16 43 -17 410 -15 l399 3 29 33 29 32 0 510 0 510 -29 32 -29 33 -507 3 -506 3 -35 -35z" fill="#ffffff"/>
<path d="M401 1289 c-189 -36 -276 -268 -158 -422 l25 -33 -34 -19 c-52 -28 -132 -118 -161 -182 -18 -38 -28 -80 -31 -129 -5 -77 2 -90 42 -80 20 5 24 14 30 65 9 76 55 168 108 216 22 21 69 51 104 66 80 36 84 59 23 108 -57 46 -79 86 -79 144 0 62 19 105 63 144 72 63 160 67 237 12 118 -85 100 -245 -35 -325 -31 -18 -12 -59 33 -72 115 -35 213 -155 231 -282 9 -70 20 -85 53 -76 21 6 447 458 469 498 12 22 2 46 -23 54 -25 7 -25 7 -248 -234 l-175 -190 -11 33 c-32 90 -91 168 -162 217 -26 17 -49 33 -51 34 -2 2 8 17 23 34 27 32 56 115 56 160 0 55 -31 132 -71 175 -67 73 -159 103 -258 84z" fill="#ffffff"/>
</g>
</svg>