<?xml version="1.0" standalone="no"?>
<!DOCTYPE svg PUBLIC "-//W3C//DTD SVG 20010904//EN"
 "http://www.w3.org/TR/2001/REC-SVG-20010904/DTD/svg10.dtd">
<svg version="1.0" xmlns="http://www.w3.org/2000/svg"
 width="3465.000000pt" height="3465.000000pt" viewBox="0 0 3465.000000 3465.000000"
 preserveAspectRatio="xMidYMid meet">

<g transform="translate(0.000000,3465.000000) scale(0.100000,-0.100000)"
fill="#000000" stroke="none">
<path d="M2885 29229 c-515 -48 -981 -270 -1342 -640 -342 -351 -551 -822
-582 -1314 -26 -406 44 -756 219 -1104 197 -392 504 -704 900 -914 334 -177
700 -258 1100 -244 341 12 542 65 868 227 231 115 386 222 553 382 96 92 229
246 229 265 0 17 -436 456 -449 451 -4 -2 -45 -49 -90 -105 -153 -191 -320
-325 -535 -427 -220 -106 -402 -146 -657 -146 -648 0 -1168 360 -1386 960 -53
145 -73 261 -80 455 -4 144 -2 190 16 299 79 476 364 863 786 1066 219 105
418 150 665 150 217 0 396 -37 580 -119 268 -119 453 -269 616 -497 25 -35 51
-64 57 -64 18 0 447 433 447 450 0 35 -214 269 -355 389 -248 211 -635 397
-932 451 -212 38 -424 48 -628 29z m493 -94 c211 -28 394 -86 605 -191 192
-96 303 -171 471 -318 69 -61 224 -229 234 -254 4 -13 -313 -342 -329 -342 -4
0 -32 31 -63 70 -145 179 -301 303 -513 410 -251 125 -450 167 -750 157 -243
-8 -414 -48 -628 -147 -551 -254 -895 -845 -861 -1477 28 -530 288 -976 726
-1245 394 -242 931 -294 1369 -132 102 38 273 124 350 176 119 81 276 227 355
331 16 20 34 37 40 37 6 0 85 -74 175 -164 l164 -164 -40 -49 c-67 -79 -232
-235 -323 -305 -104 -80 -205 -141 -360 -218 -294 -147 -509 -203 -829 -216
-496 -20 -938 116 -1337 413 -423 314 -716 811 -784 1327 -8 56 -11 181 -8
345 4 235 7 266 32 376 127 554 465 1025 936 1303 253 149 477 230 755 272
155 23 455 26 613 5z"/>
<path d="M21870 28513 c-1 -903 -20 -1482 -60 -1763 -75 -526 -162 -797 -309
-953 -120 -129 -351 -150 -586 -55 -38 15 -76 28 -82 28 -10 0 -13 -74 -13
-335 l0 -335 38 -16 c66 -28 241 -65 342 -73 246 -19 478 29 664 138 79 45
201 167 261 260 110 171 195 386 260 666 113 484 155 1026 155 1991 l0 464
705 0 705 0 2 -1732 3 -1733 335 0 335 0 3 2035 c1 1119 0 2045 -3 2058 l-5
22 -1375 0 -1375 0 0 -667z m2668 -1373 c1 -1075 0 -1965 -3 -1978 l-5 -22
-248 2 -247 3 -3 1724 c-1 1254 -5 1728 -13 1738 -16 18 -1538 20 -1557 1 -9
-9 -12 -147 -12 -557 0 -605 -10 -917 -40 -1246 -80 -866 -276 -1389 -596
-1588 -54 -33 -150 -71 -254 -99 -73 -20 -109 -23 -260 -23 -171 0 -225 7
-342 41 l-48 15 0 246 0 245 28 -5 c15 -3 62 -12 105 -21 153 -31 278 -18 402
43 184 91 316 361 399 816 77 426 96 777 96 1851 0 418 3 764 7 767 3 4 587 6
1297 5 l1291 -3 3 -1955z"/>
<path d="M9695 27989 c-630 -52 -1152 -533 -1292 -1189 -25 -117 -25 -488 0
-600 136 -606 565 -1035 1167 -1166 68 -15 128 -19 305 -19 193 0 233 3 330
23 246 53 517 192 692 356 73 68 203 220 203 238 0 13 -405 418 -417 418 -6 0
-35 -28 -65 -62 -137 -159 -278 -257 -453 -316 -101 -34 -188 -45 -329 -40
-142 5 -223 26 -345 88 -82 41 -201 138 -260 212 -59 73 -139 227 -148 281
l-6 37 1051 0 1050 0 6 28 c3 15 11 56 18 92 7 38 12 139 12 245 -1 193 -14
277 -70 450 -107 331 -357 622 -669 778 -152 76 -337 129 -495 142 -151 12
-187 12 -285 4z m250 -89 c141 -13 196 -24 325 -66 239 -77 464 -240 617 -448
145 -197 235 -457 249 -726 6 -101 -5 -249 -22 -312 -5 -17 -65 -18 -1070 -18
-910 0 -1065 -2 -1070 -14 -8 -21 33 -159 70 -241 124 -267 360 -454 654 -516
161 -35 379 -15 532 47 169 68 248 121 383 253 l77 76 150 -150 c82 -83 150
-155 150 -162 0 -19 -111 -141 -185 -202 -181 -150 -392 -252 -635 -306 -111
-25 -398 -31 -520 -11 -629 103 -1090 573 -1181 1204 -16 118 -6 381 19 497
52 230 166 461 315 632 185 214 457 380 717 437 148 33 270 40 425 26z"/>
<path d="M9625 27436 c-170 -40 -294 -106 -408 -220 -75 -74 -111 -124 -161
-223 -43 -86 -89 -220 -81 -233 4 -6 316 -10 841 -10 801 0 834 1 834 18 0 29
-44 150 -80 222 -91 180 -214 301 -393 385 -39 19 -99 42 -132 51 -83 22 -339
29 -420 10z m355 -78 c181 -35 369 -162 468 -316 36 -57 92 -173 92 -192 0
-13 -1446 -14 -1454 -1 -3 4 17 53 45 109 158 316 486 471 849 400z"/>
<path d="M19290 27990 c-52 -4 -122 -13 -155 -20 -262 -54 -549 -211 -731
-401 -93 -97 -144 -157 -144 -168 0 -8 349 -364 397 -405 22 -18 22 -18 125
85 78 78 128 118 198 159 176 103 268 132 425 133 205 1 364 -78 461 -229 36
-56 81 -191 68 -203 -5 -4 -169 -33 -364 -65 -682 -111 -722 -119 -865 -175
-241 -93 -422 -266 -506 -485 -71 -184 -73 -437 -5 -617 46 -123 89 -191 181
-284 130 -132 289 -222 477 -272 95 -26 118 -28 298 -28 157 0 211 4 275 19
147 34 310 109 442 202 34 24 64 44 67 44 3 0 7 -48 8 -107 l3 -108 320 0 320
0 0 975 c0 1045 1 1021 -52 1185 -52 162 -137 300 -261 427 -242 248 -589 368
-982 338z m375 -105 c414 -87 707 -362 814 -765 l25 -95 4 -937 3 -938 -241 0
-240 0 0 163 c0 90 -3 167 -7 170 -3 4 -30 -20 -60 -52 -148 -164 -415 -301
-650 -332 -130 -17 -326 -6 -441 25 -322 88 -551 299 -623 573 -25 97 -27 264
-4 378 34 172 151 347 299 448 149 101 285 144 632 202 120 20 307 51 414 70
107 18 245 41 305 50 61 10 115 23 122 29 9 8 10 29 3 81 -59 448 -565 641
-1025 390 -103 -56 -148 -89 -239 -175 -40 -39 -77 -70 -82 -70 -12 0 -304
292 -304 304 0 16 165 178 241 237 173 132 406 229 619 259 95 13 342 5 435
-15z"/>
<path d="M19895 26450 c-90 -16 -170 -29 -610 -100 -266 -43 -360 -79 -457
-175 -75 -74 -110 -147 -116 -241 -10 -164 68 -293 223 -364 91 -42 166 -53
318 -47 107 4 146 10 206 31 158 55 279 139 376 260 125 155 183 318 187 524
3 106 1 127 -12 128 -8 1 -60 -6 -115 -16z m42 -167 c-14 -203 -116 -399 -273
-523 -137 -109 -246 -149 -424 -157 -175 -8 -282 23 -364 104 -122 120 -112
305 22 424 90 79 144 96 442 144 124 20 299 50 390 65 91 16 176 29 189 29
l24 1 -6 -87z"/>
<path d="M29924 27989 c-440 -34 -860 -290 -1106 -675 -92 -144 -184 -384
-213 -559 -22 -130 -22 -386 0 -510 57 -326 213 -619 449 -842 154 -146 387
-282 576 -336 162 -47 274 -60 468 -54 255 8 369 36 596 146 214 104 391 238
540 407 42 48 76 90 76 94 0 4 -102 100 -226 215 l-226 207 -100 -106 c-117
-125 -188 -181 -301 -241 -137 -73 -223 -97 -364 -103 -140 -5 -210 5 -324 49
-241 93 -425 304 -511 587 -17 55 -21 97 -21 227 -1 139 2 170 21 240 26 91
97 237 144 299 126 165 295 280 475 322 89 21 257 21 347 0 84 -20 214 -80
305 -140 72 -48 211 -186 256 -255 15 -22 33 -41 39 -41 6 0 112 101 235 224
l224 225 -28 38 c-16 21 -74 83 -129 138 -238 237 -614 419 -911 440 -165 12
-192 12 -291 4z m301 -90 c100 -12 179 -30 270 -61 94 -32 282 -127 375 -189
86 -58 243 -197 280 -249 l21 -29 -165 -167 -165 -167 -98 100 c-107 110 -172
157 -308 226 -109 55 -171 73 -295 87 -155 18 -340 -15 -475 -83 -177 -89
-334 -255 -426 -451 -71 -151 -84 -218 -84 -416 0 -153 3 -185 23 -255 117
-403 420 -663 817 -700 85 -9 272 16 346 46 176 69 294 145 425 273 83 82 99
93 114 83 9 -7 85 -74 168 -151 123 -113 150 -142 142 -155 -19 -37 -213 -212
-302 -274 -154 -107 -353 -200 -514 -241 -175 -43 -436 -47 -609 -7 -536 122
-930 514 -1066 1061 -21 86 -24 117 -24 320 0 247 7 292 76 487 152 431 511
762 954 880 148 39 354 52 520 32z"/>
<path d="M5307 27933 c-4 -3 -7 -649 -7 -1435 l0 -1428 323 2 322 3 3 1123 2
1122 630 0 630 0 2 -1122 3 -1123 323 -3 322 -2 -2 1432 -3 1433 -1271 3
c-699 1 -1274 -1 -1277 -5z m2471 -1418 c1 -731 0 -1340 -3 -1353 l-5 -22
-238 2 -237 3 -5 1125 -5 1125 -710 0 -710 0 -5 -1125 -5 -1125 -229 -3 c-177
-2 -231 1 -238 10 -9 16 -11 2682 -1 2691 3 4 542 6 1197 5 l1191 -3 3 -1330z"/>
<path d="M11737 27933 c-4 -3 -7 -646 -7 -1428 0 -1181 2 -1424 13 -1434 10
-8 329 -12 1143 -13 l1129 -3 3 -332 2 -333 320 0 320 0 0 645 0 645 -197 0
c-109 0 -204 4 -210 8 -10 6 -13 247 -15 1128 l-3 1119 -320 0 -320 0 -5
-1125 -5 -1125 -580 -3 c-319 -1 -590 0 -602 3 l-23 5 -2 1123 -3 1122 -316 3
c-173 1 -318 -1 -322 -5z m555 -1205 l3 -1123 687 -3 688 -2 2 1122 3 1123
235 0 235 0 5 -1120 5 -1120 199 -3 c127 -1 204 -6 213 -13 10 -9 13 -116 13
-555 0 -480 -2 -544 -16 -558 -13 -14 -49 -16 -233 -16 -155 0 -220 3 -229 12
-9 9 -12 98 -12 340 l0 328 -1132 2 -1133 3 -3 1340 c-1 737 0 1346 3 1353 3
9 60 12 235 12 l230 0 2 -1122z"/>
<path d="M15065 27928 c-3 -7 -4 -652 -3 -1433 l3 -1420 275 -3 275 -2 115
146 c63 81 250 317 415 524 165 208 376 474 469 591 333 420 380 478 388 473
4 -3 8 -394 8 -870 l0 -864 320 0 320 0 0 1435 0 1435 -272 -2 -273 -3 -105
-131 c-58 -72 -221 -277 -362 -455 -141 -178 -403 -508 -582 -734 -179 -225
-330 -411 -336 -413 -7 -3 -11 284 -12 865 l-3 868 -318 3 c-249 2 -319 0
-322 -10z m555 -1017 c0 -604 4 -942 10 -946 9 -5 168 192 810 1001 113 142
261 329 330 416 69 86 181 227 248 313 l124 155 211 -2 212 -3 3 -1330 c1
-731 0 -1340 -3 -1353 l-5 -22 -238 2 -237 3 -5 950 -5 950 -79 -100 c-44 -55
-153 -192 -242 -305 -195 -245 -422 -532 -674 -849 -102 -129 -259 -326 -350
-440 l-165 -206 -205 0 -205 0 -3 1340 c-1 737 0 1346 3 1353 3 9 60 12 235
12 l230 0 0 -939z"/>
<path d="M25487 27933 c-4 -3 -7 -649 -7 -1435 l0 -1428 274 0 274 0 109 137
c102 130 362 457 423 533 15 19 63 80 107 135 137 173 454 573 596 753 76 94
142 172 147 172 7 0 10 -305 10 -865 l0 -865 323 2 322 3 0 1430 0 1430 -272
3 -271 2 -93 -117 c-51 -65 -179 -226 -284 -358 -105 -132 -269 -339 -365
-460 -495 -626 -641 -805 -650 -800 -6 4 -10 321 -10 871 l0 864 -313 0 c-173
0 -317 -3 -320 -7z m551 -1030 c1 -519 6 -943 10 -943 5 0 80 91 169 203 88
111 296 373 462 582 166 209 426 536 577 728 152 191 282 354 291 362 12 13
48 15 221 13 l207 -3 0 -1350 0 -1350 -237 -3 -238 -2 0 950 c0 539 -4 950 -9
950 -5 0 -33 -33 -64 -72 -30 -40 -286 -364 -569 -719 -282 -355 -595 -750
-696 -878 l-184 -231 -203 0 c-176 0 -204 2 -209 16 -8 22 -8 2679 1 2688 4 3
110 5 237 4 l231 -3 3 -942z"/>
<path d="M31410 27630 l0 -310 475 0 475 0 2 -1122 3 -1123 323 -3 322 -2 0
1125 0 1125 478 2 477 3 0 305 0 305 -1277 3 -1278 2 0 -310z m2475 -5 l0
-220 -475 -5 -475 -5 -5 -1125 -5 -1125 -235 0 -235 0 -3 1114 c-1 803 -5
1118 -13 1128 -9 10 -99 13 -480 13 l-469 0 0 218 c0 120 3 222 7 225 3 4 542
6 1197 5 l1191 -3 0 -220z"/>
</g>
</svg>
