<svg xmlns="http://www.w3.org/2000/svg" version="1.0" width="200.000000pt" height="200.000000pt" viewBox="0 0 200.000000 200.000000" preserveAspectRatio="xMidYMid meet">
<metadata fill="#ffffff">
Created by potrace 1.16, written by Peter Selinger 2001-2019
</metadata>
<g transform="translate(0.000000,200.000000) scale(0.100000,-0.100000)" fill="#ffffff" stroke="none">
<path d="M990 1960 c-8 -5 -42 -22 -74 -37 -116 -54 -221 -182 -247 -300 l-12 -53 -49 0 -48 0 0 -100 0 -100 26 0 c21 0 25 -3 18 -17 -11 -27 -17 -90 -10 -118 9 -37 62 -92 100 -105 25 -8 38 -21 52 -53 20 -46 192 -230 236 -253 38 -19 248 -19 286 0 44 23 216 207 236 253 14 32 27 45 52 53 38 13 91 68 100 105 7 28 1 91 -10 118 -7 14 -3 17 18 17 l26 0 0 100 0 100 -48 0 -49 0 -12 53 c-25 111 -130 245 -232 293 -24 12 -59 29 -78 38 -26 12 -63 16 -150 15 -64 0 -123 -4 -131 -9z m190 -200 l0 -140 35 0 34 0 3 130 3 131 51 -26 c88 -44 185 -165 208 -257 l6 -28 -395 0 -395 0 6 28 c23 92 120 213 208 257 l51 26 3 -131 3 -130 34 0 35 0 0 140 0 140 55 0 55 0 0 -140z m440 -290 l0 -30 -495 0 -495 0 0 30 0 30 495 0 495 0 0 -30z m-160 -198 c0 -143 -13 -174 -125 -291 l-93 -96 -113 -3 -112 -4 -97 99 c-117 120 -130 149 -130 295 l0 98 335 0 335 0 0 -98z" fill="#ffffff"/>
<path d="M305 1089 c-9 -49 -25 -57 -64 -30 -16 12 -33 21 -38 21 -5 0 -37 -28 -71 -63 l-62 -62 24 -36 c29 -42 22 -58 -25 -68 l-34 -7 -3 -92 c-3 -98 -4 -94 49 -106 14 -3 31 -17 37 -31 11 -25 13 -25 42 -10 35 18 35 20 15 68 -11 27 -21 36 -42 39 -25 3 -28 7 -28 38 0 30 4 35 28 40 22 4 33 15 49 52 19 45 20 49 3 74 -16 25 -16 27 6 50 22 23 22 23 47 5 25 -18 27 -18 71 2 51 22 61 32 61 65 0 18 5 22 35 22 31 0 35 -3 40 -33 6 -29 14 -37 54 -54 47 -19 49 -20 72 -2 24 18 24 18 62 -19 l37 -36 27 27 27 27 -54 55 c-30 30 -58 55 -63 55 -5 0 -22 -9 -37 -20 -37 -27 -56 -17 -64 31 l-6 39 -94 0 -94 0 -7 -41z" fill="#ffffff"/>
<path d="M330 892 c-55 -30 -80 -75 -80 -142 0 -67 25 -112 80 -142 45 -24 129 -20 168 8 32 24 72 98 72 134 0 36 -40 110 -72 134 -39 28 -123 32 -168 8z m129 -78 c44 -37 44 -91 0 -128 -17 -14 -42 -26 -56 -26 -36 0 -83 51 -83 90 0 39 47 90 83 90 14 0 39 -12 56 -26z" fill="#ffffff"/>
<path d="M650 894 c-14 -10 -26 -18 -28 -19 -1 -1 4 -19 11 -41 11 -31 20 -40 43 -44 25 -5 29 -9 29 -40 0 -30 -4 -35 -29 -40 -23 -4 -31 -14 -47 -54 -16 -44 -17 -50 -2 -73 15 -22 14 -25 -7 -48 -23 -24 -23 -24 -48 -6 -24 17 -26 17 -73 -2 -40 -17 -48 -25 -54 -54 -5 -30 -9 -33 -40 -33 -30 0 -35 4 -35 23 0 32 -10 42 -61 64 -44 20 -47 20 -70 2 -24 -18 -24 -18 -62 19 l-37 36 -27 -27 -27 -27 54 -55 c30 -30 58 -55 63 -55 5 0 22 9 38 21 39 27 55 19 64 -30 l7 -41 94 0 94 0 6 39 c8 48 27 58 64 31 15 -11 32 -20 37 -20 5 0 37 29 72 64 l64 64 -22 30 c-28 41 -27 60 7 68 66 14 62 8 62 105 l0 89 -45 11 c-25 6 -45 14 -45 18 0 4 -6 15 -13 24 -11 16 -14 16 -37 1z" fill="#ffffff"/>
<path d="M840 809 c0 -34 23 -84 125 -276 69 -128 125 -245 125 -258 l0 -25 -190 0 -190 0 0 -35 0 -35 190 0 190 0 0 -40 0 -40 -226 0 -226 0 7 77 c8 84 13 101 50 152 16 22 25 47 25 72 0 38 -1 39 -35 39 -31 0 -35 -3 -35 -26 0 -15 -12 -38 -30 -55 -25 -25 -31 -42 -40 -112 -5 -45 -13 -97 -16 -114 l-5 -33 -99 0 c-115 0 -108 -10 -85 119 16 91 13 101 -32 101 -25 0 -25 0 -48 -140 -9 -52 -18 -107 -21 -123 l-6 -27 856 0 c471 0 856 1 856 3 0 1 -18 106 -40 234 -43 253 -56 290 -124 361 -53 56 -90 75 -261 132 -118 39 -140 50 -143 68 -3 18 -10 22 -38 22 -30 0 -34 -3 -34 -27 0 -15 -47 -116 -106 -227 -59 -111 -107 -202 -108 -203 -6 -8 -216 410 -216 430 0 24 -4 27 -35 27 -34 0 -35 -1 -35 -41z m690 -287 c5 -158 7 -173 28 -199 33 -41 39 -61 47 -146 l7 -77 -226 0 -226 0 0 40 0 40 190 0 190 0 0 35 0 35 -190 0 -190 0 0 25 c0 13 53 123 117 243 l117 219 66 -22 65 -22 5 -171z m192 93 c35 -23 87 -89 102 -130 8 -20 66 -349 66 -372 0 -10 -27 -13 -100 -13 l-99 0 -5 32 c-3 18 -11 70 -16 115 -9 70 -15 87 -40 112 l-30 29 0 141 0 140 43 -15 c23 -8 59 -26 79 -39z" fill="#ffffff"/>
</g>
</svg>