<svg xmlns="http://www.w3.org/2000/svg" version="1.0" width="200.000000pt" height="200.000000pt" viewBox="0 0 200.000000 200.000000" preserveAspectRatio="xMidYMid meet">
<metadata fill="#ffffff">
Created by potrace 1.16, written by Peter Selinger 2001-2019
</metadata>
<g transform="translate(0.000000,200.000000) scale(0.100000,-0.100000)" fill="#ffffff" stroke="none">
<path d="M124 1736 c-3 -8 -4 -154 -2 -323 4 -280 7 -315 27 -388 62 -224 204 -412 369 -491 45 -22 76 -29 144 -32 l88 -4 42 -81 c168 -314 486 -353 764 -94 117 109 195 231 242 377 23 69 112 469 112 500 0 10 -6 20 -12 23 -31 11 -518 120 -522 116 -2 -2 -7 -18 -10 -35 l-7 -30 233 -54 c128 -29 234 -54 235 -54 5 -3 -81 -376 -103 -443 -59 -186 -212 -371 -369 -449 -69 -34 -89 -39 -163 -43 -77 -3 -88 -1 -147 28 -74 37 -136 101 -183 189 -18 33 -32 62 -32 66 0 24 198 87 280 89 79 2 146 -27 227 -98 70 -61 98 -60 97 5 -1 86 -70 187 -157 231 -23 12 -69 24 -102 27 l-61 4 43 87 c81 162 88 210 88 571 l0 315 -558 3 c-481 2 -558 0 -563 -12z m1056 -295 c0 -262 -12 -362 -55 -478 -56 -148 -180 -298 -295 -359 -49 -26 -65 -29 -145 -29 -84 0 -94 2 -153 34 -136 74 -262 253 -314 446 -18 70 -22 115 -26 353 l-4 272 496 0 496 0 0 -239z" fill="#ffffff"/>
<path d="M360 1429 c-27 -11 -80 -58 -80 -71 0 -4 13 -14 30 -23 28 -14 31 -14 50 5 37 37 113 39 152 3 14 -13 25 -14 46 -7 40 14 38 38 -4 70 -30 24 -48 29 -103 31 -36 2 -77 -2 -91 -8z" fill="#ffffff"/>
<path d="M860 1429 c-27 -11 -80 -58 -80 -71 0 -4 13 -14 30 -23 28 -14 31 -14 50 5 37 37 113 39 152 3 14 -13 25 -14 46 -7 40 14 38 38 -4 70 -30 24 -48 29 -103 31 -36 2 -77 -2 -91 -8z" fill="#ffffff"/>
<path d="M415 996 c-17 -12 -18 -18 -7 -54 17 -55 95 -140 157 -168 70 -33 170 -33 240 0 96 44 192 183 153 222 -13 13 -24 10 -100 -30 -47 -24 -107 -48 -133 -51 -61 -10 -157 16 -227 61 -61 39 -59 38 -83 20z" fill="#ffffff"/>
<path d="M1373 1003 c-57 -11 10 -101 90 -122 64 -15 95 -14 145 9 48 22 53 40 18 64 -22 14 -28 14 -62 0 -47 -20 -103 -6 -132 31 -11 14 -24 24 -28 24 -5 -1 -19 -4 -31 -6z" fill="#ffffff"/>
</g>
</svg>