<svg xmlns="http://www.w3.org/2000/svg" version="1.0" width="200.000000pt" height="200.000000pt" viewBox="0 0 200.000000 200.000000" preserveAspectRatio="xMidYMid meet">
<metadata fill="#ffffff">
Created by potrace 1.16, written by Peter Selinger 2001-2019
</metadata>
<g transform="translate(0.000000,200.000000) scale(0.100000,-0.100000)" fill="#ffffff" stroke="none">
<path d="M891 1951 c-20 -13 -9 -120 19 -193 54 -143 132 -212 308 -273 8 -3 12 -34 12 -110 l0 -105 -45 0 c-81 0 -174 -69 -190 -139 -6 -28 -10 -31 -43 -31 -55 0 -136 -50 -167 -103 -14 -24 -25 -49 -25 -55 0 -8 30 -12 98 -12 53 0 165 -7 247 -15 83 -8 185 -15 228 -15 84 0 133 -17 174 -62 29 -30 53 -89 53 -128 0 -37 4 -37 114 -5 47 14 95 25 105 25 39 0 53 28 49 100 -6 119 -69 203 -180 241 -48 16 -54 21 -62 55 -19 82 -134 155 -221 141 l-35 -6 0 109 0 108 38 12 c71 23 152 73 198 122 56 60 90 133 112 239 16 77 16 81 -1 94 -23 16 -89 3 -175 -36 -85 -38 -138 -82 -183 -152 l-38 -58 -16 32 c-24 46 -90 113 -143 148 -70 44 -206 87 -231 72z" fill="#ffffff"/>
<path d="M734 840 c-23 -5 -93 -29 -155 -53 -63 -24 -188 -65 -279 -91 -206 -58 -215 -62 -229 -92 -7 -16 -11 -93 -11 -208 0 -170 1 -185 21 -210 24 -31 54 -33 269 -15 l136 12 125 -41 c285 -94 412 -111 559 -73 211 55 682 291 743 372 45 61 28 150 -36 189 -43 27 -71 25 -224 -13 -120 -31 -136 -38 -177 -75 -68 -63 -128 -76 -301 -68 -77 3 -153 9 -168 12 -37 8 -55 41 -34 62 14 13 32 13 155 3 153 -14 221 -7 279 29 62 38 83 107 54 178 -20 49 -55 62 -163 62 -51 0 -160 7 -243 15 -164 16 -257 17 -321 5z" fill="#ffffff"/>
</g>
</svg>