<svg xmlns="http://www.w3.org/2000/svg" version="1.0" width="200.000000pt" height="200.000000pt" viewBox="0 0 200.000000 200.000000" preserveAspectRatio="xMidYMid meet">
<metadata fill="#ffffff">
Created by potrace 1.16, written by Peter Selinger 2001-2019
</metadata>
<g transform="translate(0.000000,200.000000) scale(0.100000,-0.100000)" fill="#ffffff" stroke="none">
<path d="M1192 1927 c-19 -6 -55 -30 -81 -53 -47 -42 -49 -43 -87 -33 -45 13 -112 6 -154 -16 l-31 -16 18 -30 c12 -20 23 -27 33 -23 58 25 88 26 135 5 26 -12 54 -21 61 -21 7 0 27 20 43 44 77 112 225 112 303 1 36 -50 36 -50 116 -21 55 21 108 8 151 -35 38 -38 45 -65 38 -139 l-7 -59 42 -28 c131 -88 129 -235 -4 -319 l-38 -24 6 -73 c5 -62 2 -77 -16 -105 -22 -35 -88 -71 -130 -72 -14 0 -42 9 -63 20 -50 27 -62 25 -85 -14 -52 -88 -164 -122 -247 -74 -22 13 -52 42 -68 66 -16 23 -34 42 -41 42 -6 0 -29 -9 -51 -20 -51 -26 -82 -25 -135 3 -64 34 -83 75 -75 163 l6 71 -31 13 c-54 22 -110 106 -110 165 0 59 56 143 111 165 l30 13 -7 64 c-4 43 -2 73 7 94 11 29 11 33 -12 50 -13 10 -28 19 -32 19 -17 0 -39 -75 -38 -132 0 -32 -4 -58 -10 -58 -5 0 -27 -18 -48 -41 -102 -104 -90 -288 24 -375 33 -25 35 -30 35 -86 0 -92 49 -168 132 -202 43 -18 114 -21 154 -6 24 10 30 7 59 -25 47 -50 107 -75 186 -75 75 0 152 32 193 81 22 25 28 28 51 19 41 -16 116 -11 160 9 83 38 147 149 132 229 -4 22 2 33 35 61 116 100 116 295 1 390 -33 27 -36 34 -37 88 -4 143 -130 245 -268 216 -51 -10 -52 -10 -86 25 -50 49 -105 72 -177 71 -33 -1 -75 -6 -93 -12z" fill="#ffffff"/>
<path d="M1030 1630 l0 -60 -65 0 -65 0 0 -35 0 -35 65 0 65 0 0 -65 0 -65 35 0 35 0 0 65 0 65 60 0 60 0 0 35 0 35 -60 0 -60 0 0 60 0 60 -35 0 -35 0 0 -60z" fill="#ffffff"/>
<path d="M625 1609 c-75 -31 -179 -104 -232 -164 -132 -148 -183 -302 -183 -551 l0 -104 -25 0 c-38 0 -90 -25 -109 -51 -19 -28 -21 -87 -4 -124 15 -33 56 -55 101 -55 l34 0 5 -95 c5 -83 9 -101 34 -142 18 -28 49 -59 77 -77 41 -25 59 -29 142 -34 l94 -5 3 -71 3 -71 325 0 325 0 7 77 c13 146 36 198 138 313 33 38 77 95 96 126 34 57 88 188 81 196 -3 2 -21 7 -41 10 -30 5 -36 3 -36 -13 0 -41 -83 -182 -159 -270 -104 -122 -151 -226 -151 -339 l0 -35 -260 0 -260 0 0 68 c0 40 -5 73 -12 80 -8 8 -49 12 -117 12 -88 0 -112 3 -139 20 -40 25 -72 75 -72 116 0 29 3 32 59 47 33 9 72 28 88 41 l28 24 -24 26 -24 25 -42 -24 c-51 -30 -85 -33 -85 -6 0 10 -9 30 -21 45 -16 21 -29 26 -64 26 -26 0 -50 6 -59 16 -35 34 -11 64 51 64 33 0 50 6 68 25 24 23 25 28 25 174 0 83 5 174 11 203 16 81 81 206 141 272 57 64 179 150 228 161 38 8 42 16 29 54 -13 36 -10 36 -74 10z" fill="#ffffff"/>
<path d="M1340 1535 l0 -35 160 0 160 0 0 35 0 35 -160 0 -160 0 0 -35z" fill="#ffffff"/>
<path d="M930 1315 l-24 -25 52 -53 52 -53 -50 -49 -50 -49 25 -25 25 -25 50 49 50 49 50 -49 c53 -52 68 -54 94 -12 9 13 1 26 -39 67 l-49 50 49 50 49 50 -24 25 -24 25 -51 -50 -51 -50 -49 50 c-27 27 -52 50 -55 50 -4 0 -17 -11 -30 -25z" fill="#ffffff"/>
<path d="M1470 1215 c-131 -131 -135 -139 -87 -169 14 -9 38 10 144 116 l127 127 -24 26 c-13 14 -26 25 -29 25 -4 0 -62 -56 -131 -125z" fill="#ffffff"/>
<path d="M395 1226 c-39 -82 -57 -166 -34 -166 8 0 23 -3 35 -6 18 -5 22 0 27 34 4 21 22 70 41 108 19 38 34 69 33 70 -1 0 -13 8 -27 17 -13 9 -28 17 -32 17 -4 0 -23 -33 -43 -74z" fill="#ffffff"/>
<path d="M564 1000 c-58 -13 -69 -33 -36 -64 13 -11 28 -14 51 -10 58 12 95 -51 53 -89 -37 -34 -92 -11 -92 39 0 23 -29 44 -60 44 -17 0 -22 -48 -10 -84 18 -56 62 -86 124 -86 58 0 88 16 111 60 28 53 14 134 -29 169 -22 18 -76 28 -112 21z" fill="#ffffff"/>
</g>
</svg>