<svg xmlns="http://www.w3.org/2000/svg" version="1.0" width="200.000000pt" height="200.000000pt" viewBox="0 0 200.000000 200.000000" preserveAspectRatio="xMidYMid meet">
<metadata fill="#ffffff">
Created by potrace 1.16, written by Peter Selinger 2001-2019
</metadata>
<g transform="translate(0.000000,200.000000) scale(0.100000,-0.100000)" fill="#ffffff" stroke="none">
<path d="M1040 1994 c-133 -53 -165 -64 -187 -64 -14 0 -46 -7 -72 -15 -25 -8 -75 -18 -111 -22 -57 -7 -66 -11 -73 -33 -9 -25 11 -97 20 -73 3 9 11 8 30 -4 23 -16 26 -16 35 0 10 18 35 21 87 11 33 -7 33 -18 -2 -34 -21 -11 -21 -11 -3 4 19 15 19 16 -8 16 -16 0 -45 -10 -65 -22 -19 -13 -51 -28 -71 -34 l-35 -12 30 -2 c26 -1 27 -3 10 -10 -19 -8 -18 -9 4 -9 13 -1 39 13 58 29 41 36 67 41 29 5 -23 -21 -26 -28 -16 -40 40 -49 224 47 260 136 18 42 78 71 149 71 146 1 257 -77 323 -229 l23 -53 73 0 c71 0 73 1 66 23 -37 119 -97 216 -172 275 -22 18 -67 44 -99 59 -50 23 -73 28 -163 30 -58 1 -112 0 -120 -3z" fill="#ffffff"/>
<path d="M60 1567 c0 -25 56 -93 108 -131 115 -84 300 -153 541 -202 151 -30 181 -45 201 -103 l15 -43 62 6 c82 8 87 11 106 51 22 46 56 62 200 90 246 49 432 120 545 207 54 42 102 101 102 125 0 10 -188 13 -940 13 -782 0 -940 -2 -940 -13z" fill="#ffffff"/>
<path d="M1484 1250 c-57 -16 -102 -35 -124 -53 -80 -68 -199 -108 -407 -138 -315 -45 -445 -120 -445 -257 0 -52 19 -81 81 -129 45 -35 163 -76 249 -88 l52 -7 0 75 0 76 -57 11 c-224 46 -179 118 98 160 162 25 205 34 289 62 99 32 197 85 250 134 44 41 116 155 108 172 -2 4 -44 -4 -94 -18z" fill="#ffffff"/>
<path d="M1025 885 c-5 -2 -31 -6 -57 -10 l-48 -6 0 -219 0 -218 80 26 80 26 0 203 0 203 -22 -1 c-13 0 -27 -2 -33 -4z" fill="#ffffff"/>
<path d="M1110 626 c0 -74 0 -74 29 -81 37 -8 59 -31 44 -46 -6 -6 -74 -33 -151 -59 -181 -63 -233 -90 -299 -155 -74 -75 -70 -90 15 -48 45 22 114 43 215 63 231 48 322 88 368 164 51 83 -6 175 -135 219 -84 29 -86 28 -86 -57z" fill="#ffffff"/>
<path d="M989 276 c-63 -14 -79 -22 -79 -40 0 -18 -40 -53 -80 -70 -19 -8 -91 -26 -160 -41 -154 -32 -270 -82 -270 -117 0 -4 270 -8 600 -8 330 0 600 4 600 8 0 35 -116 85 -270 117 -185 40 -233 65 -246 132 -7 37 -10 37 -95 19z" fill="#ffffff"/>
</g>
</svg>