<svg xmlns="http://www.w3.org/2000/svg" version="1.0" width="200.000000pt" height="200.000000pt" viewBox="0 0 200.000000 200.000000" preserveAspectRatio="xMidYMid meet">
<metadata fill="#ffffff">
Created by potrace 1.16, written by Peter Selinger 2001-2019
</metadata>
<g transform="translate(0.000000,200.000000) scale(0.100000,-0.100000)" fill="#ffffff" stroke="none">
<path d="M705 1866 c-61 -27 -115 -102 -115 -161 0 -14 -4 -25 -10 -25 -15 0 -80 -61 -94 -89 -8 -14 -17 -45 -21 -68 -4 -24 -11 -46 -17 -49 -19 -12 -48 -88 -48 -127 0 -39 21 -100 44 -127 7 -8 18 -41 25 -73 10 -46 21 -67 52 -98 21 -21 45 -39 53 -39 8 0 15 -16 19 -41 19 -146 206 -211 321 -110 10 9 27 33 37 53 18 35 19 64 19 436 l0 398 -29 46 c-48 76 -155 110 -236 74z m145 -85 c50 -36 50 -40 48 -448 l-3 -382 -29 -30 c-56 -58 -144 -48 -186 21 -26 43 -25 58 3 58 28 0 83 33 96 59 26 47 -28 69 -76 31 -40 -32 -89 -26 -129 14 -43 43 -43 53 -1 48 82 -9 186 56 202 127 5 26 11 31 35 31 20 0 31 6 35 20 9 29 -12 50 -49 50 -41 0 -52 9 -71 53 -13 33 -20 38 -43 35 -20 -2 -28 -9 -30 -26 -4 -30 14 -75 39 -98 10 -9 19 -23 19 -30 0 -23 -50 -73 -85 -84 -52 -17 -117 16 -139 71 -15 36 -13 89 2 89 3 0 16 -10 28 -21 46 -43 79 1 45 61 -37 67 -20 144 39 175 41 21 77 19 126 -10 49 -29 74 -24 74 14 0 32 -50 69 -104 78 -41 6 -44 15 -16 61 37 60 113 75 170 33z" fill="#ffffff"/>
<path d="M1151 1870 c-81 -35 -121 -97 -121 -188 0 -70 15 -89 75 -94 32 -2 40 -7 40 -23 0 -18 -7 -20 -57 -20 l-58 1 0 -187 0 -186 55 5 c45 4 56 1 61 -13 9 -21 -11 -35 -52 -35 -53 0 -67 -26 -63 -123 4 -73 7 -88 32 -120 102 -134 322 -81 344 82 3 23 10 41 15 41 6 0 23 9 39 21 34 24 63 77 73 132 4 21 18 53 31 73 45 66 45 152 0 219 -14 20 -28 53 -31 75 -8 52 -36 94 -83 127 -30 22 -40 36 -44 66 -6 47 -39 96 -85 127 -38 27 -130 37 -171 20z m249 -349 c-1 -56 -62 -146 -112 -164 -18 -6 19 -47 42 -47 22 0 44 -25 35 -40 -14 -22 -67 -10 -99 23 -18 17 -35 37 -37 42 -2 6 -17 17 -34 25 -50 26 -39 46 23 42 48 -3 55 -1 86 30 22 22 37 49 42 74 4 21 11 42 17 46 18 12 37 -4 37 -31z" fill="#ffffff"/>
<path d="M273 932 c-6 -4 -17 -20 -22 -35 -12 -31 -15 -317 -4 -382 9 -58 83 -125 241 -218 l132 -78 0 -49 0 -50 175 0 175 0 0 175 c0 261 -13 279 -235 334 -44 11 -107 29 -139 41 -83 28 -119 26 -146 -7 -22 -28 -22 -72 0 -98 6 -7 67 -34 135 -60 96 -37 125 -52 125 -66 0 -10 -4 -21 -10 -24 -5 -3 -71 20 -146 52 -177 75 -174 70 -174 278 0 172 -8 195 -63 195 -18 0 -37 -4 -44 -8z" fill="#ffffff"/>
<path d="M1637 922 c-14 -16 -17 -43 -17 -171 0 -220 9 -207 -213 -301 -99 -41 -117 -43 -117 -11 0 13 31 29 125 65 68 27 129 54 135 61 38 46 6 125 -51 125 -16 0 -82 -16 -146 -34 -65 -19 -144 -42 -175 -51 -31 -8 -71 -27 -88 -41 -56 -48 -60 -65 -60 -264 l0 -180 175 0 175 0 0 49 0 50 133 78 c76 45 154 100 185 130 l52 52 0 215 c0 182 -2 217 -16 230 -21 22 -77 20 -97 -2z" fill="#ffffff"/>
</g>
</svg>